<svg width="24" height="24" viewBox="0 0 24 24" fill="none" xmlns="http://www.w3.org/2000/svg">
<path fill-rule="evenodd" clip-rule="evenodd" d="M23.0014 11.897C22.9439 5.82212 17.9726 0.944083 11.8977 1.00158C5.82288 1.05908 0.944842 6.03034 1.00234 12.1052C1.05984 18.1801 6.0311 23.0581 12.106 23.0006C18.1808 22.9431 23.0589 17.9718 23.0014 11.897ZM3.00225 12.0863C2.95521 7.11593 6.94633 3.04854 11.9167 3.00149C16.887 2.95445 20.9544 6.94557 21.0014 11.9159C21.0485 16.8862 17.0574 20.9536 12.087 21.0007C7.11669 21.0477 3.0493 17.0566 3.00225 12.0863ZM11.9447 6.00302C11.3923 6.00824 10.9487 6.46018 10.9539 7.01244C10.9592 7.5647 11.4112 8.00816 11.9637 8.00293C12.5161 7.9977 12.9597 7.54576 12.9545 6.9935C12.9493 6.44124 12.4972 5.99779 11.9447 6.00302ZM11.0551 18.012L13.0557 17.993L12.9799 9.9934L10.9794 10.0123L11.0551 18.012Z" fill="#5F7EEB"/>
</svg>
